<mxfile host="app.diagrams.net" modified="2023-09-29T15:12:20.625Z" agent="Mozilla/5.0 (Windows NT 10.0; Win64; x64) AppleWebKit/537.36 (KHTML, like Gecko) Chrome/117.0.0.0 Safari/537.36 Edg/117.0.2045.41" version="21.8.2" etag="X7FqbGYxqf2gefn7GyFs" type="github">
  <diagram name="Page-1" id="ROK-oVCJLwaA5oLjkDMq">
    <mxGraphModel>
      <root>
        <mxCell id="0" />
        <mxCell id="1" parent="0" />
      </root>
    </mxGraphModel>
  </diagram>
</mxfile>
